<svg xmlns="http://www.w3.org/2000/svg" version="1.1" xmlns:xlink="http://www.w3.org/1999/xlink" width="399.89" height="197.64"><svg xmlns="http://www.w3.org/2000/svg" version="1.1" xmlns:xlink="http://www.w3.org/1999/xlink" width="399.89" height="197.64"><svg id="Layer_1" data-name="Layer 1" xmlns="http://www.w3.org/2000/svg" xmlns:xlink="http://www.w3.org/1999/xlink" viewBox="0 0 399.89 197.64">
  <defs>
    <linearGradient id="linear-gradient" x1="8.56" y1="83.64" x2="389.23" y2="83.64" gradientUnits="userSpaceOnUse">
      <stop offset="0" stop-color="#aebeea"></stop>
      <stop offset=".32" stop-color="#bdbdee"></stop>
      <stop offset="1" stop-color="#dbbcf6"></stop>
    </linearGradient>
  </defs>
  <text transform="translate(0 142.88)" style="font-family: Inter18pt-SemiBold, 'Inter 18pt'; font-size: 165.42px; font-weight: 600;"><tspan x="0" y="0">Zoha</tspan></text>
  <g>
    <path d="M8.56,142.88v-14.22L60.33,56.46c2.85-3.88,5.91-7.78,9.17-11.71,3.26-3.93,6.55-7.86,9.89-11.79l1.94,7.11c-5.17.32-10.34.52-15.51.61-5.17.08-10.34.12-15.51.12H8.72v-18.25h89.65v14.3l-50.88,71c-3.02,4.09-6.22,8.2-9.61,12.32-3.39,4.12-6.84,8.23-10.34,12.32l-1.94-7.11c5.28-.32,10.55-.52,15.83-.61,5.28-.08,10.55-.12,15.83-.12h41.52v18.25H8.56Z" style="fill: url(#linear-gradient);"></path>
    <path d="M156.61,144.74c-8.67,0-16.22-1.92-22.66-5.77-6.44-3.85-11.42-9.23-14.94-16.15-3.53-6.92-5.29-14.98-5.29-24.19s1.76-17.28,5.29-24.23c3.53-6.95,8.51-12.34,14.94-16.19,6.43-3.85,13.99-5.77,22.66-5.77s16.3,1.93,22.74,5.77c6.43,3.85,11.42,9.25,14.94,16.19,3.53,6.95,5.29,15.02,5.29,24.23s-1.76,17.27-5.29,24.19c-3.53,6.92-8.51,12.3-14.94,16.15-6.44,3.85-14.01,5.77-22.74,5.77ZM156.61,127.7c4.79,0,8.8-1.28,12.03-3.84,3.23-2.56,5.67-6.03,7.31-10.42,1.64-4.39,2.46-9.33,2.46-14.82s-.82-10.59-2.46-14.98c-1.64-4.39-4.08-7.85-7.31-10.38-3.23-2.53-7.24-3.8-12.03-3.8s-8.72,1.27-11.95,3.8c-3.23,2.53-5.65,5.99-7.27,10.38-1.62,4.39-2.42,9.38-2.42,14.98s.81,10.43,2.42,14.82c1.62,4.39,4.04,7.86,7.27,10.42,3.23,2.56,7.21,3.84,11.95,3.84Z" style="fill: url(#linear-gradient);"></path>
    <path d="M237.78,91.03v51.85h-20.84V22.53h20.68v53.31h-2.67c2.53-7.75,6.26-13.6,11.19-17.53,4.93-3.93,11.08-5.9,18.46-5.9,6.14,0,11.52,1.32,16.15,3.96,4.63,2.64,8.24,6.49,10.82,11.55,2.58,5.06,3.88,11.23,3.88,18.5v56.46h-20.92v-53.23c0-6.14-1.55-10.9-4.64-14.3-3.1-3.39-7.42-5.09-12.96-5.09-3.66,0-6.93.79-9.81,2.38-2.88,1.59-5.16,3.92-6.83,6.99-1.67,3.07-2.5,6.87-2.5,11.39Z" style="fill: url(#linear-gradient);"></path>
    <path d="M342.22,144.66c-5.71,0-10.84-1.02-15.39-3.07-4.55-2.05-8.15-5.06-10.78-9.05-2.64-3.98-3.96-8.91-3.96-14.78,0-5.06.94-9.23,2.83-12.52,1.88-3.28,4.46-5.91,7.71-7.88,3.26-1.96,6.93-3.46,11.02-4.48,4.09-1.02,8.32-1.75,12.68-2.18,5.28-.59,9.53-1.1,12.76-1.53,3.23-.43,5.59-1.13,7.07-2.1,1.48-.97,2.22-2.45,2.22-4.44v-.48c0-2.85-.61-5.29-1.82-7.31-1.21-2.02-2.98-3.57-5.29-4.64-2.32-1.08-5.2-1.62-8.64-1.62s-6.37.52-8.93,1.57c-2.56,1.05-4.63,2.45-6.22,4.2-1.59,1.75-2.71,3.67-3.35,5.77l-19.47-3.07c1.45-5.44,3.97-9.97,7.55-13.61,3.58-3.63,7.97-6.38,13.17-8.24,5.2-1.86,10.97-2.79,17.32-2.79,4.52,0,8.95.54,13.29,1.62,4.33,1.08,8.25,2.81,11.75,5.21,3.5,2.4,6.29,5.55,8.36,9.45,2.07,3.9,3.11,8.68,3.11,14.34v59.85h-20.11v-12.36h-.73c-1.29,2.53-3.1,4.87-5.41,7.03-2.32,2.15-5.18,3.88-8.6,5.17-3.42,1.29-7.47,1.94-12.16,1.94ZM347.55,129.15c4.31,0,8.04-.85,11.19-2.54,3.15-1.7,5.57-3.94,7.27-6.74,1.7-2.8,2.54-5.87,2.54-9.21v-10.34c-.7.54-1.82,1.04-3.35,1.49-1.54.46-3.29.86-5.25,1.21-1.97.35-3.93.67-5.9.97-1.97.3-3.7.52-5.21.69-3.07.43-5.86,1.14-8.36,2.14-2.5,1-4.48,2.34-5.94,4.04-1.45,1.7-2.18,3.92-2.18,6.66,0,2.53.65,4.66,1.94,6.38,1.29,1.72,3.07,3.03,5.33,3.92s4.9,1.33,7.92,1.33Z" style="fill: url(#linear-gradient);"></path>
  </g>
</svg></svg><style>@media (prefers-color-scheme: light) { :root { filter: none; } }
@media (prefers-color-scheme: dark) { :root { filter: none; } }
</style></svg>